<svg xmlns="http://www.w3.org/2000/svg" xmlns:xlink="http://www.w3.org/1999/xlink" width="1444" height="937" viewBox="0 0 1444 937">
  <defs>
    <clipPath id="clip-path">
      <rect id="사각형_74" data-name="사각형 74" width="1444" height="937" transform="translate(4 0)" fill="none"/>
    </clipPath>
    <radialGradient id="radial-gradient" cx="1.063" cy="0.619" r="1.05" gradientTransform="matrix(0.34, 0.94, -0.94, 0.34, 0.54, -0.748)" gradientUnits="objectBoundingBox">
      <stop offset="0" stop-color="#bc909b"/>
      <stop offset="0.186" stop-color="#a06796" stop-opacity="0.714"/>
      <stop offset="0.379" stop-color="#874292" stop-opacity="0.463"/>
      <stop offset="0.562" stop-color="#74258f" stop-opacity="0.263"/>
      <stop offset="0.731" stop-color="#66108c" stop-opacity="0.118"/>
      <stop offset="0.88" stop-color="#5d048b" stop-opacity="0.031"/>
      <stop offset="0.995" stop-color="#5b008b" stop-opacity="0"/>
    </radialGradient>
    <radialGradient id="radial-gradient-2" cx="1.06" cy="0.369" r="1.05" gradientTransform="translate(0.243 -0.565) rotate(45)" gradientUnits="objectBoundingBox">
      <stop offset="0.005" stop-color="#5b008b" stop-opacity="0"/>
      <stop offset="0.309" stop-color="#5c018b" stop-opacity="0.012"/>
      <stop offset="0.454" stop-color="#5f068d" stop-opacity="0.047"/>
      <stop offset="0.567" stop-color="#650f91" stop-opacity="0.114"/>
      <stop offset="0.662" stop-color="#6e1b97" stop-opacity="0.208"/>
      <stop offset="0.746" stop-color="#7a2b9e" stop-opacity="0.325"/>
      <stop offset="0.823" stop-color="#883ea7" stop-opacity="0.475"/>
      <stop offset="0.894" stop-color="#9855b2" stop-opacity="0.651"/>
      <stop offset="0.958" stop-color="#ab70be" stop-opacity="0.847"/>
      <stop offset="1" stop-color="#ba84c8"/>
    </radialGradient>
    <radialGradient id="radial-gradient-3" cx="0.5" cy="0.5" r="0.5" gradientTransform="matrix(0.998, -0.058, -0.058, -0.998, 0.507, 17.342)" gradientUnits="objectBoundingBox">
      <stop offset="0" stop-color="#fff"/>
      <stop offset="0.005" stop-color="#fff" stop-opacity="0.988"/>
      <stop offset="0.085" stop-color="#fff" stop-opacity="0.78"/>
      <stop offset="0.17" stop-color="#fff" stop-opacity="0.596"/>
      <stop offset="0.259" stop-color="#fff" stop-opacity="0.435"/>
      <stop offset="0.351" stop-color="#fff" stop-opacity="0.302"/>
      <stop offset="0.45" stop-color="#fff" stop-opacity="0.192"/>
      <stop offset="0.555" stop-color="#fff" stop-opacity="0.106"/>
      <stop offset="0.67" stop-color="#fff" stop-opacity="0.047"/>
      <stop offset="0.804" stop-color="#fff" stop-opacity="0.012"/>
      <stop offset="1" stop-color="#fff" stop-opacity="0"/>
    </radialGradient>
    <radialGradient id="radial-gradient-4" cx="0.5" cy="0.5" r="0.5" gradientTransform="matrix(0.998, -0.058, -0.058, -0.998, -0.083, -2.93)" xlink:href="#radial-gradient-3"/>
    <radialGradient id="radial-gradient-5" cx="0.5" cy="0.5" r="0.5" gradientTransform="matrix(0.998, -0.058, -0.058, -0.998, 0.457, 15.501)" xlink:href="#radial-gradient-3"/>
    <radialGradient id="radial-gradient-6" cx="0.5" cy="0.5" r="0.5" gradientTransform="matrix(0.998, -0.058, -0.058, -0.998, 0.544, 18.448)" xlink:href="#radial-gradient-3"/>
    <radialGradient id="radial-gradient-7" cx="0.5" cy="0.5" r="0.5" gradientTransform="matrix(0.998, -0.058, -0.058, -0.998, 0.709, 24.211)" xlink:href="#radial-gradient-3"/>
    <radialGradient id="radial-gradient-8" cx="0.5" cy="0.5" r="0.5" gradientTransform="translate(0.5 -0.207) rotate(45)" gradientUnits="objectBoundingBox">
      <stop offset="0" stop-color="#5795c9"/>
      <stop offset="0.168" stop-color="#5371b0" stop-opacity="0.757"/>
      <stop offset="0.377" stop-color="#504a95" stop-opacity="0.49"/>
      <stop offset="0.572" stop-color="#4d2c80" stop-opacity="0.278"/>
      <stop offset="0.747" stop-color="#4b1670" stop-opacity="0.125"/>
      <stop offset="0.895" stop-color="#4a0867" stop-opacity="0.031"/>
      <stop offset="1" stop-color="#4a0464" stop-opacity="0"/>
    </radialGradient>
    <radialGradient id="radial-gradient-9" cx="0.803" cy="0.011" r="1.05" gradientUnits="objectBoundingBox">
      <stop offset="0.005" stop-color="#5b008b" stop-opacity="0"/>
      <stop offset="1" stop-color="#64bee4"/>
    </radialGradient>
    <radialGradient id="radial-gradient-11" cx="0.195" cy="0.918" r="0.653" gradientTransform="translate(0)" gradientUnits="objectBoundingBox">
      <stop offset="0" stop-color="#fff"/>
      <stop offset="0.115" stop-color="#e3f9ff" stop-opacity="0.851"/>
      <stop offset="0.363" stop-color="#acedff" stop-opacity="0.553"/>
      <stop offset="0.584" stop-color="#81e3ff" stop-opacity="0.314"/>
      <stop offset="0.77" stop-color="#61dcff" stop-opacity="0.145"/>
      <stop offset="0.915" stop-color="#4ed8ff" stop-opacity="0.039"/>
      <stop offset="1" stop-color="#47d7ff" stop-opacity="0"/>
    </radialGradient>
    <radialGradient id="radial-gradient-12" cx="0.155" cy="0.842" r="0.653" gradientTransform="matrix(1, 0, 0, 1, 0, 0)" xlink:href="#radial-gradient-11"/>
    <radialGradient id="radial-gradient-13" cx="0.5" cy="0.5" r="0.5" gradientTransform="matrix(0.707, 0.707, -0.707, 0.707, 0.5, -0.207)" gradientUnits="objectBoundingBox">
      <stop offset="0" stop-color="#773cc8"/>
      <stop offset="0.165" stop-color="#6c2eb0" stop-opacity="0.761"/>
      <stop offset="0.375" stop-color="#601f95" stop-opacity="0.49"/>
      <stop offset="0.57" stop-color="#56137f" stop-opacity="0.278"/>
      <stop offset="0.746" stop-color="#4f0b70" stop-opacity="0.125"/>
      <stop offset="0.895" stop-color="#4b0567" stop-opacity="0.031"/>
      <stop offset="1" stop-color="#4a0464" stop-opacity="0"/>
    </radialGradient>
    <radialGradient id="radial-gradient-14" cx="1.06" cy="0.369" r="1.05" gradientTransform="matrix(0.707, 0.707, -0.707, 0.707, 0.243, -0.565)" gradientUnits="objectBoundingBox">
      <stop offset="0" stop-color="#e46efa"/>
      <stop offset="0.995" stop-color="#5b008b" stop-opacity="0"/>
    </radialGradient>
    <radialGradient id="radial-gradient-15" cx="1.06" cy="0.369" r="1.05" xlink:href="#radial-gradient-14"/>
    <radialGradient id="radial-gradient-17" cx="1.06" cy="0.369" r="1.05" gradientTransform="matrix(0.707, 0.707, -0.707, 0.707, 0.243, -0.565)" xlink:href="#radial-gradient-11"/>
  </defs>
  <g id="ba" transform="translate(980.504 -80.448)" opacity="0.59">
    <g id="그룹_237" data-name="그룹 237" transform="translate(-984.504 80.448)" clip-path="url(#clip-path)">
      <path id="패스_4239" data-name="패스 4239" d="M39.8-.945C61.943-1.32,79.586,15.594,79.211,36.834S60.585,75.6,38.446,75.97-1.337,59.431-.962,38.191,17.664-.57,39.8-.945Z" transform="matrix(0.34, -0.94, 0.94, 0.34, 218.477, 437.309)" fill="url(#radial-gradient)"/>
      <path id="패스_4240" data-name="패스 4240" d="M58.724-2.241c32.785-.885,58.645,24.975,57.76,57.76S88.3,115.6,55.519,116.485-3.126,91.51-2.241,58.724,25.939-1.356,58.724-2.241Z" transform="translate(913.135 696.529) rotate(-45)" fill="url(#radial-gradient-2)"/>
      <g id="그룹_229" data-name="그룹 229" transform="translate(107.797 74.935)">
        <g id="그룹_220" data-name="그룹 220" transform="translate(342.857)">
          <path id="패스_4144" data-name="패스 4144" d="M-630.157,278.565c-1.623-29.393-25.52-51.836-53.376-50.124s-49.106,26.943-47.487,56.344,25.525,51.838,53.376,50.124S-628.529,307.965-630.157,278.565Z" transform="translate(731.107 -25.626)" fill="url(#radial-gradient-3)" style="mix-blend-mode: screen;isolation: isolate"/>
          <g id="그룹_219" data-name="그룹 219" transform="translate(46.072)">
            <path id="패스_4145" data-name="패스 4145" d="M-694.521,379.3a5.838,5.838,0,0,1-8.537.711,6.644,6.644,0,0,1-.674-9.013c2.172-2.682,212.718-250.723,212.718-250.723C-490.243,120.969-692.348,376.612-694.521,379.3Z" transform="translate(705.182 -120.273)" fill="#fff" opacity="0"/>
            <path id="패스_4146" data-name="패스 4146" d="M-694.771,371.782a5.639,5.639,0,0,1-8.242.687,6.416,6.416,0,0,1-.652-8.7c2.1-2.59,199.592-235.138,199.663-235.074C-503.208,129.41-692.674,369.19-694.771,371.782Z" transform="translate(705.273 -112.899)" fill="#fff" opacity="0.063"/>
            <path id="패스_4147" data-name="패스 4147" d="M-695.023,364.263a5.436,5.436,0,0,1-7.947.662,6.187,6.187,0,0,1-.627-8.39c2.022-2.5,186.463-219.55,186.6-219.421C-516.173,137.849-693,361.765-695.023,364.263Z" transform="translate(705.365 -105.525)" fill="#fff" opacity="0.125"/>
            <path id="패스_4148" data-name="패스 4148" d="M-695.272,356.747a5.234,5.234,0,0,1-7.652.636,5.951,5.951,0,0,1-.6-8.077c1.946-2.4,173.335-203.965,173.548-203.772C-529.14,146.29-693.326,354.34-695.272,356.747Z" transform="translate(705.456 -98.151)" fill="#fff" opacity="0.188"/>
            <path id="패스_4149" data-name="패스 4149" d="M-695.523,349.229a5.033,5.033,0,0,1-7.357.613,5.725,5.725,0,0,1-.581-7.767c1.871-2.311,160.209-188.377,160.493-188.12C-542.1,154.731-693.65,346.916-695.523,349.229Z" transform="translate(705.548 -90.777)" fill="#fff" opacity="0.25"/>
            <path id="패스_4150" data-name="패스 4150" d="M-695.775,341.712a4.828,4.828,0,0,1-7.061.587,5.492,5.492,0,0,1-.558-7.454c1.8-2.219,147.081-172.792,147.437-172.471C-555.072,163.171-693.976,339.492-695.775,341.712Z" transform="translate(705.639 -83.403)" fill="#fff" opacity="0.313"/>
            <path id="패스_4151" data-name="패스 4151" d="M-696.025,334.194a4.63,4.63,0,0,1-6.767.565,5.265,5.265,0,0,1-.533-7.145c1.72-2.125,133.952-157.2,134.378-156.82C-568.037,171.612-694.3,332.067-696.025,334.194Z" transform="translate(705.731 -76.03)" fill="#fff" opacity="0.375"/>
            <path id="패스_4152" data-name="패스 4152" d="M-696.276,326.678a4.428,4.428,0,0,1-6.472.538,5.036,5.036,0,0,1-.51-6.831c1.646-2.033,120.826-141.619,121.323-141.171C-581,180.053-694.629,324.643-696.276,326.678Z" transform="translate(705.822 -68.656)" fill="#fff" opacity="0.438"/>
            <path id="패스_4153" data-name="패스 4153" d="M-696.526,319.162a4.228,4.228,0,0,1-6.177.514,4.808,4.808,0,0,1-.487-6.522c1.571-1.94,107.7-126.031,108.267-125.519C-593.969,188.494-694.955,317.219-696.526,319.162Z" transform="translate(705.914 -61.283)" fill="#fff" opacity="0.5"/>
            <path id="패스_4154" data-name="패스 4154" d="M-696.777,311.644a4.024,4.024,0,0,1-5.882.49,4.575,4.575,0,0,1-.462-6.209c1.495-1.848,94.57-110.446,95.21-109.87C-606.936,196.935-695.281,309.795-696.777,311.644Z" transform="translate(706.005 -53.909)" fill="#fff" opacity="0.563"/>
            <path id="패스_4155" data-name="패스 4155" d="M-697.027,304.128a3.821,3.821,0,0,1-5.587.463,4.346,4.346,0,0,1-.441-5.9c1.42-1.754,81.443-94.858,82.153-94.219C-619.9,205.376-695.605,302.371-697.027,304.128Z" transform="translate(706.097 -46.536)" fill="#fff" opacity="0.625"/>
            <path id="패스_4156" data-name="패스 4156" d="M-697.279,296.611a3.62,3.62,0,0,1-5.292.441,4.117,4.117,0,0,1-.416-5.586c1.345-1.662,68.315-79.273,69.1-78.569C-632.866,213.817-695.931,294.947-697.279,296.611Z" transform="translate(706.189 -39.163)" fill="#fff" opacity="0.688"/>
            <path id="패스_4157" data-name="패스 4157" d="M-697.529,289.1a3.419,3.419,0,0,1-5,.415,3.886,3.886,0,0,1-.393-5.275c1.269-1.568,55.187-63.685,56.04-62.918C-645.833,222.259-696.258,287.524-697.529,289.1Z" transform="translate(706.28 -31.79)" fill="#fff" opacity="0.75"/>
            <path id="패스_4158" data-name="패스 4158" d="M-697.78,281.579a3.217,3.217,0,0,1-4.7.392,3.659,3.659,0,0,1-.37-4.963c1.194-1.476,42.061-48.1,42.984-47.269C-658.8,230.7-696.584,280.1-697.78,281.579Z" transform="translate(706.372 -24.418)" fill="#fff" opacity="0.813"/>
            <path id="패스_4159" data-name="패스 4159" d="M-698.03,274.067a3.018,3.018,0,0,1-4.409.366,3.43,3.43,0,0,1-.345-4.652c1.118-1.382,28.932-32.512,29.927-31.618C-671.765,239.146-696.91,272.68-698.03,274.067Z" transform="translate(706.463 -17.048)" fill="#fff" opacity="0.875"/>
            <path id="패스_4160" data-name="패스 4160" d="M-698.281,266.558a2.814,2.814,0,0,1-4.112.343,3.2,3.2,0,0,1-.322-4.34c1.043-1.29,15.8-16.927,16.87-15.966C-684.73,247.6-697.236,265.266-698.281,266.558Z" transform="translate(706.555 -9.684)" fill="#fff" opacity="0.938"/>
            <path id="패스_4161" data-name="패스 4161" d="M-698.53,259.342a2.614,2.614,0,0,1-3.819.317,2.969,2.969,0,0,1-.3-4.029,2.611,2.611,0,0,1,3.816-.315A2.971,2.971,0,0,1-698.53,259.342Z" transform="translate(706.646 -2.61)" fill="#fff"/>
          </g>
        </g>
        <g id="그룹_222" data-name="그룹 222" transform="translate(607.697 606.187)">
          <path id="패스_4162" data-name="패스 4162" d="M-529.871,525.31c-.841-15.2-13.2-26.81-27.606-25.923s-25.4,13.931-24.558,29.14,13.2,26.81,27.6,25.923S-529.031,540.513-529.871,525.31Z" transform="translate(582.08 -394.494)" fill="url(#radial-gradient-4)" style="mix-blend-mode: screen;isolation: isolate"/>
          <g id="그룹_221" data-name="그룹 221" transform="translate(23.827)">
            <path id="패스_4163" data-name="패스 4163" d="M-563.161,577.408a3.018,3.018,0,0,1-4.414.368,3.437,3.437,0,0,1-.348-4.661c1.125-1.39,110.014-129.67,110.014-129.67C-457.51,443.8-562.036,576.018-563.161,577.408Z" transform="translate(568.673 -443.444)" fill="#fff" opacity="0"/>
            <path id="패스_4164" data-name="패스 4164" d="M-563.29,573.519a2.913,2.913,0,0,1-4.262.356,3.32,3.32,0,0,1-.338-4.5c1.086-1.339,103.225-121.608,103.262-121.575C-464.216,448.169-562.2,572.18-563.29,573.519Z" transform="translate(568.72 -439.63)" fill="#fff" opacity="0.063"/>
            <path id="패스_4165" data-name="패스 4165" d="M-563.419,569.632a2.811,2.811,0,0,1-4.11.341,3.2,3.2,0,0,1-.323-4.339c1.045-1.292,96.435-113.548,96.507-113.481C-470.922,452.533-562.372,568.34-563.419,569.632Z" transform="translate(568.767 -435.816)" fill="#fff" opacity="0.125"/>
            <path id="패스_4166" data-name="패스 4166" d="M-563.549,565.744a2.706,2.706,0,0,1-3.956.33,3.08,3.08,0,0,1-.313-4.179c1.008-1.244,89.646-105.486,89.756-105.387C-477.627,456.9-562.54,564.5-563.549,565.744Z" transform="translate(568.814 -432.004)" fill="#fff" opacity="0.188"/>
            <path id="패스_4167" data-name="패스 4167" d="M-563.679,561.855a2.6,2.6,0,0,1-3.8.319,2.965,2.965,0,0,1-.3-4.018c.969-1.2,82.857-97.424,83-97.293C-484.333,461.265-562.708,560.66-563.679,561.855Z" transform="translate(568.862 -428.19)" fill="#fff" opacity="0.25"/>
            <path id="패스_4168" data-name="패스 4168" d="M-563.808,557.968a2.5,2.5,0,0,1-3.652.3,2.844,2.844,0,0,1-.29-3.857c.931-1.148,76.069-89.362,76.252-89.2C-491.039,465.631-562.878,556.82-563.808,557.968Z" transform="translate(568.909 -424.376)" fill="#fff" opacity="0.313"/>
            <path id="패스_4169" data-name="패스 4169" d="M-563.937,554.079a2.394,2.394,0,0,1-3.5.293,2.725,2.725,0,0,1-.276-3.7c.89-1.1,69.278-81.3,69.5-81.1C-497.744,470-563.046,552.98-563.937,554.079Z" transform="translate(568.956 -420.561)" fill="#fff" opacity="0.375"/>
            <path id="패스_4170" data-name="패스 4170" d="M-564.068,550.193a2.288,2.288,0,0,1-3.346.279,2.605,2.605,0,0,1-.265-3.534c.853-1.052,62.49-73.242,62.747-73.012C-504.45,474.361-563.214,549.141-564.068,550.193Z" transform="translate(569.004 -416.749)" fill="#fff" opacity="0.438"/>
            <path id="패스_4171" data-name="패스 4171" d="M-564.2,546.3a2.187,2.187,0,0,1-3.2.266,2.487,2.487,0,0,1-.252-3.373c.814-1,55.7-65.18,55.994-64.916C-511.154,478.727-563.382,545.3-564.2,546.3Z" transform="translate(569.051 -412.935)" fill="#fff" opacity="0.5"/>
            <path id="패스_4172" data-name="패스 4172" d="M-564.326,542.418a2.083,2.083,0,0,1-3.042.253,2.367,2.367,0,0,1-.24-3.211c.773-.957,48.91-57.12,49.241-56.822C-517.861,483.091-563.551,541.461-564.326,542.418Z" transform="translate(569.099 -409.121)" fill="#fff" opacity="0.563"/>
            <path id="패스_4173" data-name="패스 4173" d="M-564.456,538.53a1.977,1.977,0,0,1-2.89.242,2.252,2.252,0,0,1-.228-3.052c.736-.908,42.122-49.058,42.49-48.728C-524.567,487.457-563.719,537.622-564.456,538.53Z" transform="translate(569.146 -405.309)" fill="#fff" opacity="0.625"/>
            <path id="패스_4174" data-name="패스 4174" d="M-564.586,534.643a1.872,1.872,0,0,1-2.737.227,2.131,2.131,0,0,1-.217-2.889c.7-.861,35.333-41,35.736-40.634C-531.272,491.824-563.889,533.782-564.586,534.643Z" transform="translate(569.193 -401.495)" fill="#fff" opacity="0.688"/>
            <path id="패스_4175" data-name="패스 4175" d="M-564.715,530.755a1.769,1.769,0,0,1-2.586.216,2.014,2.014,0,0,1-.2-2.729c.657-.81,28.543-32.936,28.983-32.539C-537.978,496.188-564.057,529.943-564.715,530.755Z" transform="translate(569.241 -397.682)" fill="#fff" opacity="0.75"/>
            <path id="패스_4176" data-name="패스 4176" d="M-564.845,526.87a1.663,1.663,0,0,1-2.431.2,1.894,1.894,0,0,1-.192-2.568c.618-.763,21.754-24.876,22.23-24.447C-544.684,500.557-564.225,526.106-564.845,526.87Z" transform="translate(569.288 -393.87)" fill="#fff" opacity="0.813"/>
            <path id="패스_4177" data-name="패스 4177" d="M-564.974,522.983a1.561,1.561,0,0,1-2.28.189,1.776,1.776,0,0,1-.18-2.406c.579-.715,14.965-16.814,15.479-16.351C-551.388,504.923-564.393,522.268-564.974,522.983Z" transform="translate(569.335 -390.058)" fill="#fff" opacity="0.875"/>
            <path id="패스_4178" data-name="패스 4178" d="M-565.1,519.1a1.458,1.458,0,0,1-2.129.178,1.658,1.658,0,0,1-.165-2.245c.54-.668,8.175-8.754,8.726-8.257C-558.095,509.293-564.562,518.433-565.1,519.1Z" transform="translate(569.383 -386.25)" fill="#fff" opacity="0.938"/>
            <path id="패스_4179" data-name="패스 4179" d="M-565.235,515.368a1.352,1.352,0,0,1-1.974.165,1.541,1.541,0,0,1-.155-2.086,1.349,1.349,0,0,1,1.973-.161A1.531,1.531,0,0,1-565.235,515.368Z" transform="translate(569.43 -382.591)" fill="#fff"/>
          </g>
        </g>
        <g id="그룹_224" data-name="그룹 224" transform="translate(1032.127 431.093)" opacity="0.5">
          <path id="패스_4180" data-name="패스 4180" d="M-305.52,409.265c-.606-10.988-9.538-19.376-19.95-18.735s-18.354,10.069-17.75,21.061,9.542,19.376,19.952,18.735S-304.91,420.253-305.52,409.265Z" transform="translate(343.252 -314.72)" fill="url(#radial-gradient-5)" style="mix-blend-mode: screen;isolation: isolate"/>
          <g id="그룹_223" data-name="그룹 223" transform="translate(17.221)">
            <path id="패스_4181" data-name="패스 4181" d="M-329.578,446.918a2.18,2.18,0,0,1-3.19.264,2.482,2.482,0,0,1-.252-3.369c.812-1,79.511-93.716,79.511-93.716C-253.221,350.357-328.766,445.915-329.578,446.918Z" transform="translate(333.562 -350.098)" fill="#fff" opacity="0"/>
            <path id="패스_4182" data-name="패스 4182" d="M-329.67,444.108a2.107,2.107,0,0,1-3.082.257,2.4,2.4,0,0,1-.243-3.253c.785-.968,74.606-87.892,74.631-87.867C-258.068,353.511-328.887,443.14-329.67,444.108Z" transform="translate(333.596 -347.342)" fill="#fff" opacity="0.063"/>
            <path id="패스_4183" data-name="패스 4183" d="M-329.765,441.3a2.029,2.029,0,0,1-2.97.246,2.308,2.308,0,0,1-.235-3.134c.755-.934,69.7-82.066,69.751-82.019C-262.913,356.668-329.008,440.364-329.765,441.3Z" transform="translate(333.63 -344.586)" fill="#fff" opacity="0.125"/>
            <path id="패스_4184" data-name="패스 4184" d="M-329.858,438.488a1.955,1.955,0,0,1-2.861.238,2.227,2.227,0,0,1-.226-3.02c.729-.9,64.791-76.24,64.871-76.167C-267.759,359.821-329.129,437.588-329.858,438.488Z" transform="translate(333.664 -341.829)" fill="#fff" opacity="0.188"/>
            <path id="패스_4185" data-name="패스 4185" d="M-329.953,435.68a1.88,1.88,0,0,1-2.749.227,2.137,2.137,0,0,1-.217-2.9c.7-.865,59.884-70.414,59.989-70.318C-272.606,362.976-329.252,434.813-329.953,435.68Z" transform="translate(333.699 -339.073)" fill="#fff" opacity="0.25"/>
            <path id="패스_4186" data-name="패스 4186" d="M-330.045,432.869a1.807,1.807,0,0,1-2.641.22,2.055,2.055,0,0,1-.208-2.787c.672-.829,54.977-64.588,55.111-64.467C-277.453,366.132-329.373,432.039-330.045,432.869Z" transform="translate(333.733 -336.317)" fill="#fff" opacity="0.313"/>
            <path id="패스_4187" data-name="패스 4187" d="M-330.14,430.058a1.727,1.727,0,0,1-2.529.21,1.966,1.966,0,0,1-.2-2.669c.643-.8,50.071-58.761,50.229-58.617C-282.3,369.286-329.5,429.263-330.14,430.058Z" transform="translate(333.767 -333.561)" fill="#fff" opacity="0.375"/>
            <path id="패스_4188" data-name="패스 4188" d="M-330.233,427.25a1.655,1.655,0,0,1-2.419.2,1.881,1.881,0,0,1-.192-2.553c.615-.761,45.164-52.935,45.349-52.768C-287.146,372.442-329.616,426.488-330.233,427.25Z" transform="translate(333.801 -330.805)" fill="#fff" opacity="0.438"/>
            <path id="패스_4189" data-name="패스 4189" d="M-330.327,424.44a1.579,1.579,0,0,1-2.308.193,1.8,1.8,0,0,1-.181-2.438c.586-.726,40.256-47.109,40.469-46.918C-291.991,375.6-329.739,423.714-330.327,424.44Z" transform="translate(333.835 -328.049)" fill="#fff" opacity="0.5"/>
            <path id="패스_4190" data-name="패스 4190" d="M-330.42,421.63a1.5,1.5,0,0,1-2.2.182,1.708,1.708,0,0,1-.174-2.32c.56-.69,35.351-41.283,35.589-41.068C-296.839,378.753-329.86,420.938-330.42,421.63Z" transform="translate(333.87 -325.292)" fill="#fff" opacity="0.563"/>
            <path id="패스_4191" data-name="패스 4191" d="M-330.515,418.82a1.428,1.428,0,0,1-2.088.174,1.628,1.628,0,0,1-.165-2.206c.531-.655,30.444-35.455,30.709-35.217C-301.684,381.907-329.982,418.164-330.515,418.82Z" transform="translate(333.904 -322.536)" fill="#fff" opacity="0.625"/>
            <path id="패스_4192" data-name="패스 4192" d="M-330.608,416.012a1.353,1.353,0,0,1-1.978.163,1.538,1.538,0,0,1-.156-2.088c.5-.621,25.536-29.631,25.827-29.369C-306.531,385.064-330.1,415.389-330.608,416.012Z" transform="translate(333.938 -319.781)" fill="#fff" opacity="0.688"/>
            <path id="패스_4193" data-name="패스 4193" d="M-330.7,413.2a1.279,1.279,0,0,1-1.868.156,1.454,1.454,0,0,1-.147-1.971c.476-.587,20.631-23.8,20.949-23.518C-311.378,388.218-330.226,412.614-330.7,413.2Z" transform="translate(333.972 -317.024)" fill="#fff" opacity="0.75"/>
            <path id="패스_4194" data-name="패스 4194" d="M-330.8,410.391a1.2,1.2,0,0,1-1.758.146,1.365,1.365,0,0,1-.139-1.855c.446-.551,15.722-17.977,16.067-17.668C-316.224,391.375-330.347,409.84-330.8,410.391Z" transform="translate(334.006 -314.269)" fill="#fff" opacity="0.813"/>
            <path id="패스_4195" data-name="패스 4195" d="M-330.89,407.584a1.129,1.129,0,0,1-1.647.137,1.283,1.283,0,0,1-.13-1.739c.419-.518,10.816-12.153,11.187-11.819C-321.071,394.531-330.469,407.067-330.89,407.584Z" transform="translate(334.041 -311.514)" fill="#fff" opacity="0.875"/>
            <path id="패스_4196" data-name="패스 4196" d="M-330.983,404.777a1.052,1.052,0,0,1-1.537.127,1.2,1.2,0,0,1-.121-1.622c.391-.482,5.909-6.325,6.307-5.967C-325.918,397.69-330.59,404.295-330.983,404.777Z" transform="translate(334.075 -308.761)" fill="#fff" opacity="0.938"/>
            <path id="패스_4197" data-name="패스 4197" d="M-331.077,402.081a.976.976,0,0,1-1.425.118,1.109,1.109,0,0,1-.114-1.506.977.977,0,0,1,1.427-.118A1.107,1.107,0,0,1-331.077,402.081Z" transform="translate(334.109 -306.117)" fill="#fff"/>
          </g>
        </g>
        <g id="그룹_226" data-name="그룹 226" transform="translate(671.323 503.9)" opacity="0.5">
          <path id="패스_4198" data-name="패스 4198" d="M-521.275,428.119c-.4-7.28-6.32-12.838-13.22-12.414s-12.161,6.672-11.761,13.956,6.323,12.839,13.224,12.414S-520.872,435.4-521.275,428.119Z" transform="translate(546.278 -365.469)" fill="url(#radial-gradient-6)" style="mix-blend-mode: screen;isolation: isolate"/>
          <g id="그룹_225" data-name="그룹 225" transform="translate(11.412)">
            <path id="패스_4199" data-name="패스 4199" d="M-537.215,453.071a1.447,1.447,0,0,1-2.117.176,1.649,1.649,0,0,1-.167-2.232c.537-.664,52.687-62.1,52.687-62.1C-486.618,389.084-536.678,452.405-537.215,453.071Z" transform="translate(539.856 -388.913)" fill="#fff" opacity="0"/>
            <path id="패스_4200" data-name="패스 4200" d="M-537.278,451.209a1.4,1.4,0,0,1-2.042.171,1.589,1.589,0,0,1-.16-2.155c.517-.642,49.435-58.24,49.451-58.225C-489.831,391.177-536.758,450.565-537.278,451.209Z" transform="translate(539.879 -387.086)" fill="#fff" opacity="0.063"/>
            <path id="패스_4201" data-name="패스 4201" d="M-537.34,449.346a1.347,1.347,0,0,1-1.969.165,1.533,1.533,0,0,1-.155-2.078c.5-.619,46.182-54.38,46.218-54.348C-493.041,393.267-536.839,448.727-537.34,449.346Z" transform="translate(539.902 -385.259)" fill="#fff" opacity="0.125"/>
            <path id="패스_4202" data-name="패스 4202" d="M-537.4,447.485a1.3,1.3,0,0,1-1.9.158,1.475,1.475,0,0,1-.149-2c.48-.6,42.932-50.52,42.984-50.473C-496.254,395.358-536.92,446.888-537.4,447.485Z" transform="translate(539.924 -383.434)" fill="#fff" opacity="0.188"/>
            <path id="패스_4203" data-name="패스 4203" d="M-537.464,445.622a1.246,1.246,0,0,1-1.823.152,1.417,1.417,0,0,1-.144-1.923c.462-.572,39.68-46.659,39.751-46.6C-499.465,397.449-537,445.048-537.464,445.622Z" transform="translate(539.947 -381.607)" fill="#fff" opacity="0.25"/>
            <path id="패스_4204" data-name="패스 4204" d="M-537.525,443.761a1.2,1.2,0,0,1-1.75.146,1.361,1.361,0,0,1-.139-1.846c.444-.55,36.43-42.8,36.517-42.72C-502.676,399.54-537.081,443.211-537.525,443.761Z" transform="translate(539.969 -379.781)" fill="#fff" opacity="0.313"/>
            <path id="패스_4205" data-name="패스 4205" d="M-537.589,441.9a1.146,1.146,0,0,1-1.676.141,1.307,1.307,0,0,1-.133-1.771c.426-.525,33.179-38.935,33.284-38.841C-505.888,401.63-537.162,441.371-537.589,441.9Z" transform="translate(539.992 -377.954)" fill="#fff" opacity="0.375"/>
            <path id="패스_4206" data-name="패스 4206" d="M-537.651,440.037a1.1,1.1,0,0,1-1.6.135,1.251,1.251,0,0,1-.128-1.694c.407-.5,29.927-35.075,30.05-34.966C-509.1,403.72-537.244,439.534-537.651,440.037Z" transform="translate(540.015 -376.128)" fill="#fff" opacity="0.438"/>
            <path id="패스_4207" data-name="패스 4207" d="M-537.712,438.174a1.044,1.044,0,0,1-1.53.128,1.193,1.193,0,0,1-.123-1.615c.389-.48,26.677-31.214,26.817-31.089C-512.312,405.812-537.323,437.694-537.712,438.174Z" transform="translate(540.037 -374.301)" fill="#fff" opacity="0.5"/>
            <path id="패스_4208" data-name="패스 4208" d="M-537.774,436.314a1,1,0,0,1-1.457.12,1.135,1.135,0,0,1-.117-1.538c.371-.456,23.426-27.354,23.583-27.211C-515.522,407.9-537.4,435.854-537.774,436.314Z" transform="translate(540.06 -372.475)" fill="#fff" opacity="0.563"/>
            <path id="패스_4209" data-name="패스 4209" d="M-537.836,434.452a.951.951,0,0,1-1.386.114,1.081,1.081,0,0,1-.11-1.461c.352-.433,20.174-23.494,20.35-23.336C-518.733,409.993-537.486,434.017-537.836,434.452Z" transform="translate(540.083 -370.649)" fill="#fff" opacity="0.625"/>
            <path id="패스_4210" data-name="패스 4210" d="M-537.9,432.59a.9.9,0,0,1-1.312.109,1.021,1.021,0,0,1-.1-1.384c.332-.411,16.922-19.632,17.114-19.459C-521.946,412.084-537.565,432.177-537.9,432.59Z" transform="translate(540.105 -368.822)" fill="#fff" opacity="0.688"/>
            <path id="패스_4211" data-name="패스 4211" d="M-537.961,430.729a.848.848,0,0,1-1.239.1.965.965,0,0,1-.1-1.307c.315-.388,13.67-15.771,13.88-15.584C-525.157,414.175-537.646,430.339-537.961,430.729Z" transform="translate(540.128 -366.996)" fill="#fff" opacity="0.75"/>
            <path id="패스_4212" data-name="패스 4212" d="M-538.022,428.867a.8.8,0,0,1-1.166.1.9.9,0,0,1-.092-1.229c.3-.366,10.419-11.911,10.647-11.707C-528.369,416.266-537.727,428.5-538.022,428.867Z" transform="translate(540.15 -365.17)" fill="#fff" opacity="0.813"/>
            <path id="패스_4213" data-name="패스 4213" d="M-538.084,427.006a.748.748,0,0,1-1.093.09.851.851,0,0,1-.087-1.152c.277-.343,7.169-8.051,7.412-7.831C-531.58,418.359-537.809,426.663-538.084,427.006Z" transform="translate(540.173 -363.345)" fill="#fff" opacity="0.875"/>
            <path id="패스_4214" data-name="패스 4214" d="M-538.148,425.146a.7.7,0,0,1-1.018.084.793.793,0,0,1-.082-1.075c.259-.321,3.917-4.19,4.18-3.954S-537.888,424.826-538.148,425.146Z" transform="translate(540.196 -361.521)" fill="#fff" opacity="0.938"/>
            <path id="패스_4215" data-name="패스 4215" d="M-538.21,423.359a.648.648,0,0,1-.945.079.737.737,0,0,1-.077-1,.647.647,0,0,1,.946-.077A.731.731,0,0,1-538.21,423.359Z" transform="translate(540.218 -359.769)" fill="#fff"/>
          </g>
        </g>
        <g id="그룹_228" data-name="그룹 228" transform="translate(0 250.296)" opacity="0.5">
          <path id="패스_4216" data-name="패스 4216" d="M-871.824,335.576c-.84-15.2-13.2-26.808-27.606-25.923s-25.4,13.933-24.558,29.14,13.2,26.81,27.6,25.925S-870.983,350.781-871.824,335.576Z" transform="translate(924.033 -204.761)" fill="url(#radial-gradient-7)" style="mix-blend-mode: screen;isolation: isolate"/>
          <g id="그룹_227" data-name="그룹 227" transform="translate(23.827)">
            <path id="패스_4217" data-name="패스 4217" d="M-905.114,387.673a3.019,3.019,0,0,1-4.414.37,3.437,3.437,0,0,1-.348-4.661c1.125-1.39,110.014-129.67,110.014-129.67C-799.463,254.069-903.989,386.285-905.114,387.673Z" transform="translate(910.626 -253.711)" fill="#fff" opacity="0"/>
            <path id="패스_4218" data-name="패스 4218" d="M-905.243,383.786a2.917,2.917,0,0,1-4.263.354,3.319,3.319,0,0,1-.336-4.5c1.086-1.339,103.225-121.608,103.262-121.575C-806.169,258.436-904.157,382.445-905.243,383.786Z" transform="translate(910.673 -249.897)" fill="#fff" opacity="0.063"/>
            <path id="패스_4219" data-name="패스 4219" d="M-905.372,379.9a2.811,2.811,0,0,1-4.11.343,3.2,3.2,0,0,1-.325-4.339c1.047-1.292,96.436-113.548,96.509-113.483C-812.875,262.8-904.325,378.606-905.372,379.9Z" transform="translate(910.72 -246.084)" fill="#fff" opacity="0.125"/>
            <path id="패스_4220" data-name="패스 4220" d="M-905.5,376.011a2.708,2.708,0,0,1-3.958.33,3.082,3.082,0,0,1-.311-4.179c1.008-1.244,89.646-105.486,89.756-105.387C-819.58,267.165-904.493,374.765-905.5,376.011Z" transform="translate(910.767 -242.27)" fill="#fff" opacity="0.188"/>
            <path id="패스_4221" data-name="패스 4221" d="M-905.632,372.122a2.6,2.6,0,0,1-3.8.317,2.962,2.962,0,0,1-.3-4.016c.969-1.2,82.857-97.426,83-97.293C-826.286,271.531-904.663,370.925-905.632,372.122Z" transform="translate(910.815 -238.456)" fill="#fff" opacity="0.25"/>
            <path id="패스_4222" data-name="패스 4222" d="M-905.761,368.236a2.5,2.5,0,0,1-3.654.3,2.846,2.846,0,0,1-.288-3.857c.931-1.148,76.069-89.364,76.252-89.2C-832.992,275.9-904.831,367.086-905.761,368.236Z" transform="translate(910.862 -234.643)" fill="#fff" opacity="0.313"/>
            <path id="패스_4223" data-name="패스 4223" d="M-905.891,364.347a2.393,2.393,0,0,1-3.5.293,2.725,2.725,0,0,1-.276-3.7c.891-1.1,69.278-81.3,69.5-81.105C-839.7,280.263-905,363.246-905.891,364.347Z" transform="translate(910.91 -230.83)" fill="#fff" opacity="0.375"/>
            <path id="패스_4224" data-name="패스 4224" d="M-906.02,360.46a2.292,2.292,0,0,1-3.348.278,2.6,2.6,0,0,1-.263-3.532c.851-1.052,62.49-73.244,62.745-73.012C-846.4,284.628-905.167,359.406-906.02,360.46Z" transform="translate(910.957 -227.016)" fill="#fff" opacity="0.438"/>
            <path id="패스_4225" data-name="패스 4225" d="M-906.149,356.571a2.186,2.186,0,0,1-3.2.266,2.487,2.487,0,0,1-.252-3.373c.814-1,55.7-65.182,55.994-64.916C-853.109,288.992-905.335,355.566-906.149,356.571Z" transform="translate(911.004 -223.202)" fill="#fff" opacity="0.5"/>
            <path id="패스_4226" data-name="패스 4226" d="M-906.28,352.685a2.083,2.083,0,0,1-3.042.253,2.367,2.367,0,0,1-.238-3.211c.773-.957,48.91-57.122,49.241-56.824C-859.813,293.359-905.5,351.729-906.28,352.685Z" transform="translate(911.051 -219.389)" fill="#fff" opacity="0.563"/>
            <path id="패스_4227" data-name="패스 4227" d="M-906.409,348.8a1.976,1.976,0,0,1-2.89.24,2.249,2.249,0,0,1-.228-3.05c.736-.908,42.122-49.058,42.488-48.728C-866.52,297.724-905.674,347.889-906.409,348.8Z" transform="translate(911.099 -215.576)" fill="#fff" opacity="0.625"/>
            <path id="패스_4228" data-name="패스 4228" d="M-906.539,344.91a1.875,1.875,0,0,1-2.738.227,2.131,2.131,0,0,1-.215-2.889c.7-.859,35.333-41,35.736-40.634C-873.226,302.089-905.842,344.049-906.539,344.91Z" transform="translate(911.146 -211.762)" fill="#fff" opacity="0.688"/>
            <path id="패스_4229" data-name="패스 4229" d="M-906.67,341.023a1.768,1.768,0,0,1-2.584.216,2.013,2.013,0,0,1-.2-2.729c.657-.81,28.543-32.936,28.983-32.54C-879.931,306.456-906.01,340.21-906.67,341.023Z" transform="translate(911.194 -207.95)" fill="#fff" opacity="0.75"/>
            <path id="패스_4230" data-name="패스 4230" d="M-906.8,337.137a1.665,1.665,0,0,1-2.433.2,1.893,1.893,0,0,1-.19-2.566c.618-.763,21.754-24.876,22.23-24.447C-886.637,310.822-906.178,336.371-906.8,337.137Z" transform="translate(911.241 -204.137)" fill="#fff" opacity="0.813"/>
            <path id="패스_4231" data-name="패스 4231" d="M-906.927,333.25a1.561,1.561,0,0,1-2.28.19,1.776,1.776,0,0,1-.179-2.407c.579-.715,14.965-16.814,15.479-16.351C-893.341,315.19-906.346,332.533-906.927,333.25Z" transform="translate(911.288 -200.325)" fill="#fff" opacity="0.875"/>
            <path id="패스_4232" data-name="패스 4232" d="M-907.057,329.369a1.46,1.46,0,0,1-2.129.176,1.658,1.658,0,0,1-.165-2.245c.54-.668,8.175-8.754,8.726-8.259C-900.048,319.561-906.515,328.7-907.057,329.369Z" transform="translate(911.336 -196.517)" fill="#fff" opacity="0.938"/>
            <path id="패스_4233" data-name="패스 4233" d="M-907.188,325.635a1.351,1.351,0,0,1-1.974.163,1.536,1.536,0,0,1-.155-2.082,1.349,1.349,0,0,1,1.973-.165A1.533,1.533,0,0,1-907.188,325.635Z" transform="translate(911.383 -192.858)" fill="#fff"/>
          </g>
        </g>
      </g>
      <g id="그룹_230" data-name="그룹 230" transform="translate(315.333 -359.342)">
        <path id="패스_4241" data-name="패스 4241" d="M403.66-15.4C629.02-21.488,806.778,156.27,800.695,381.63S606.989,794.611,381.63,800.695-21.488,629.02-15.4,403.661,178.3-9.321,403.66-15.4Z" transform="translate(0 608.106) rotate(-45)" fill="url(#radial-gradient-8)" style="mix-blend-mode: screen;isolation: isolate"/>
        <ellipse id="타원_74" data-name="타원 74" cx="342.492" cy="361.496" rx="342.492" ry="361.496" transform="translate(426.027)" opacity="0.5" fill="url(#radial-gradient-9)"/>
        <ellipse id="타원_75" data-name="타원 75" cx="328.275" cy="346.49" rx="328.275" ry="346.49" transform="translate(440.245 15.006)" opacity="0.31" fill="url(#radial-gradient-9)"/>
        <ellipse id="타원_76" data-name="타원 76" cx="328.275" cy="346.49" rx="328.275" ry="346.49" transform="translate(440.244 15.006)" opacity="0.11" fill="url(#radial-gradient-11)" style="mix-blend-mode: overlay;isolation: isolate"/>
        <ellipse id="타원_77" data-name="타원 77" cx="328.275" cy="346.49" rx="328.275" ry="346.49" transform="translate(440.245 8.681)" opacity="0.2" fill="url(#radial-gradient-12)" style="mix-blend-mode: overlay;isolation: isolate"/>
      </g>
      <g id="그룹_231" data-name="그룹 231" transform="translate(17.525 397.039)">
        <path id="패스_4242" data-name="패스 4242" d="M251.89-9.613c140.628-3.8,251.551,107.127,247.755,247.755s-120.875,257.706-261.5,261.5S-13.409,392.517-9.613,251.89,111.262-5.816,251.89-9.613Z" transform="translate(0 374.05) rotate(-45)" fill="url(#radial-gradient-13)" style="mix-blend-mode: screen;isolation: isolate"/>
        <path id="패스_4243" data-name="패스 4243" d="M173.449-6.619c96.835-2.614,173.216,73.767,170.6,170.6S260.817,341.436,163.982,344.051s-173.216-73.767-170.6-170.6S76.614-4.005,173.449-6.619Z" transform="translate(6.5 463.596) rotate(-45)" fill="url(#radial-gradient-14)"/>
        <path id="패스_4244" data-name="패스 4244" d="M162.608-6.205C253.391-8.656,325,62.951,322.547,153.733S244.516,320.1,153.733,322.547-8.656,253.391-6.205,162.608,71.826-3.755,162.608-6.205Z" transform="translate(21.412 463.596) rotate(-45)" opacity="0.05" fill="url(#radial-gradient-15)"/>
        <path id="패스_4245" data-name="패스 4245" d="M162.608-6.205C253.391-8.656,325,62.951,322.547,153.733S244.516,320.1,153.733,322.547-8.656,253.391-6.205,162.608,71.826-3.755,162.608-6.205Z" transform="translate(9.325 476.55) rotate(-45)" opacity="0.09" fill="url(#radial-gradient-15)"/>
        <path id="패스_4246" data-name="패스 4246" d="M162.608-6.205C253.391-8.656,325,62.951,322.547,153.733S244.516,320.1,153.733,322.547-8.656,253.391-6.205,162.608,71.826-3.755,162.608-6.205Z" transform="translate(12.412 476.55) rotate(-45)" opacity="0.35" fill="url(#radial-gradient-17)" style="mix-blend-mode: overlay;isolation: isolate"/>
        <path id="패스_4247" data-name="패스 4247" d="M162.608-6.205C253.391-8.656,325,62.951,322.547,153.733S244.516,320.1,153.733,322.547-8.656,253.391-6.205,162.608,71.826-3.755,162.608-6.205Z" transform="translate(12.412 476.55) rotate(-45)" opacity="0.09" fill="url(#radial-gradient-17)" style="mix-blend-mode: overlay;isolation: isolate"/>
        <path id="패스_4248" data-name="패스 4248" d="M162.608-6.205C253.391-8.656,325,62.951,322.547,153.733S244.516,320.1,153.733,322.547-8.656,253.391-6.205,162.608,71.826-3.755,162.608-6.205Z" transform="translate(12.412 472.232) rotate(-45)" opacity="0.05" fill="url(#radial-gradient-17)" style="mix-blend-mode: overlay;isolation: isolate"/>
      </g>
    </g>
  </g>
</svg>
