<svg xmlns="http://www.w3.org/2000/svg" width="78.772" height="79.232" viewBox="0 0 78.772 79.232">
  <g id="ba_img2" transform="translate(-954.233 -308.344)">
    <path id="패스_1" data-name="패스 1" d="M993.747,316.257l8.569,26.375a.833.833,0,0,0,.793.575h27.733a.833.833,0,0,1,.489,1.507l-22.436,16.3a.833.833,0,0,0-.3.931l8.57,26.375a.833.833,0,0,1-1.282.932l-22.436-16.3a.834.834,0,0,0-.98,0l-22.436,16.3a.833.833,0,0,1-1.282-.932l8.57-26.375a.835.835,0,0,0-.3-.931l-22.436-16.3a.833.833,0,0,1,.49-1.507H982.8a.832.832,0,0,0,.792-.575l8.57-26.375A.833.833,0,0,1,993.747,316.257Z" transform="translate(0 -1.84)" fill="#836caa"/>
    <path id="패스_2" data-name="패스 2" d="M966.715,308.483l2.06,6.337a.2.2,0,0,0,.19.139h6.664a.2.2,0,0,1,.118.362l-5.391,3.917a.2.2,0,0,0-.073.223l2.06,6.338a.2.2,0,0,1-.309.224l-5.391-3.917a.2.2,0,0,0-.235,0l-5.391,3.917a.2.2,0,0,1-.308-.224l2.059-6.338a.2.2,0,0,0-.073-.223L957.3,315.32a.2.2,0,0,1,.118-.362h6.664a.2.2,0,0,0,.19-.139l2.059-6.337A.2.2,0,0,1,966.715,308.483Z" transform="translate(-0.749)" fill="#836caa"/>
    <path id="패스_3" data-name="패스 3" d="M1050.129,380.594l1.241,3.819a.12.12,0,0,0,.115.084h4.016a.121.121,0,0,1,.071.218l-3.25,2.361a.12.12,0,0,0-.043.135l1.241,3.82a.12.12,0,0,1-.185.135l-3.25-2.361a.12.12,0,0,0-.141,0l-3.249,2.361a.121.121,0,0,1-.186-.135l1.241-3.82a.121.121,0,0,0-.044-.135l-3.249-2.361a.121.121,0,0,1,.071-.218h4.016a.12.12,0,0,0,.115-.084l1.241-3.819A.121.121,0,0,1,1050.129,380.594Z" transform="translate(-22.617 -18.101)" fill="#836caa"/>
  </g>
</svg>
