<svg xmlns="http://www.w3.org/2000/svg" width="98.534" height="99.627" viewBox="0 0 98.534 99.627">
  <g id="ba_img1" transform="translate(33 33)">
    <path id="패스_1" data-name="패스 1" d="M979.194,316.06l-5.64,17.358a.548.548,0,0,1-.522.379H954.782a.548.548,0,0,0-.322.992l14.765,10.728a.549.549,0,0,1,.2.613l-5.64,17.358a.548.548,0,0,0,.844.613l14.765-10.728a.549.549,0,0,1,.645,0L994.8,364.1a.548.548,0,0,0,.844-.613l-5.64-17.358a.549.549,0,0,1,.2-.613l14.766-10.728a.549.549,0,0,0-.322-.992H986.4a.547.547,0,0,1-.521-.379l-5.64-17.358A.548.548,0,0,0,979.194,316.06Z" transform="translate(-939.665 -297.58)" fill="#6d8bcf"/>
    <path id="패스_2" data-name="패스 2" d="M966.335,308.483l-2.06,6.337a.2.2,0,0,1-.19.139h-6.664a.2.2,0,0,0-.118.362l5.391,3.917a.2.2,0,0,1,.073.223l-2.06,6.338a.2.2,0,0,0,.309.224l5.391-3.917a.2.2,0,0,1,.235,0l5.391,3.917a.2.2,0,0,0,.308-.224l-2.059-6.338a.2.2,0,0,1,.073-.223l5.391-3.917a.2.2,0,0,0-.118-.362h-6.664a.2.2,0,0,1-.19-.139l-2.059-6.337A.2.2,0,0,0,966.335,308.483Z" transform="translate(-910.295 -341.344)" fill="#836caa"/>
    <path id="패스_3" data-name="패스 3" d="M1049.9,380.594l-1.241,3.819a.12.12,0,0,1-.115.084h-4.016a.121.121,0,0,0-.071.218l3.25,2.361a.12.12,0,0,1,.043.135l-1.241,3.82a.12.12,0,0,0,.185.135l3.25-2.361a.12.12,0,0,1,.141,0l3.249,2.361a.121.121,0,0,0,.186-.135l-1.241-3.82a.121.121,0,0,1,.044-.135l3.249-2.361a.121.121,0,0,0-.071-.218h-4.016a.12.12,0,0,1-.115-.084l-1.241-3.819A.121.121,0,0,0,1049.9,380.594Z" transform="translate(-1077.406 -330.445)" fill="#836caa"/>
  </g>
</svg>
